<?xml version="1.0" encoding="UTF-8" standalone="no"?>
<svg xmlns:dc="http://purl.org/dc/elements/1.1/" xmlns:cc="http://creativecommons.org/ns#" xmlns:rdf="http://www.w3.org/1999/02/22-rdf-syntax-ns#" xmlns:svg="http://www.w3.org/2000/svg" xmlns="http://www.w3.org/2000/svg" xmlns:sodipodi="http://sodipodi.sourceforge.net/DTD/sodipodi-0.dtd" xmlns:inkscape="http://www.inkscape.org/namespaces/inkscape" id="svg2" inkscape:version="1.0.2-2 (e86c870879, 2021-01-15)" height="127.3438" width="695.03186" version="1.1" sodipodi:docname="Windows_8.1.svg">
  <defs id="defs19"/>
  <sodipodi:namedview id="base" fit-margin-left="0" inkscape:zoom="1" borderopacity="1.0" inkscape:current-layer="layer1" inkscape:cx="362.76402" inkscape:cy="73.165851" inkscape:window-maximized="1" showgrid="false" fit-margin-right="0" inkscape:document-units="px" bordercolor="#666666" inkscape:window-x="-8" inkscape:guide-bbox="true" inkscape:window-y="-8" fit-margin-bottom="0" inkscape:window-width="1366" inkscape:pageopacity="0.0" inkscape:pageshadow="2" pagecolor="#ffffff" showguides="true" inkscape:window-height="705" fit-margin-top="0" inkscape:snap-global="false" inkscape:document-rotation="0"/>
  <metadata id="metadata7">
    <rdf:RDF>
      <cc:Work rdf:about="">
        <dc:format>image/svg+xml</dc:format>
        <dc:type rdf:resource="http://purl.org/dc/dcmitype/StillImage"/>
        <dc:title/>
      </cc:Work>
    </rdf:RDF>
  </metadata>
  <g id="layer1" inkscape:label="Layer 1" inkscape:groupmode="layer" transform="translate(230.42915,-199.39456)">
    <g id="g732">
      <path sodipodi:nodetypes="cccccccccccccccccccc" d="m -172.48892,208.99133 69.40296,-9.59677 v 61.75851 h -69.40296 z m -4.97847,0.68811 -52.96176,7.32321 v 44.15102 l 52.96176,-3e-4 z m 4.97847,56.4521 v 51.69508 l 69.40296,8.91174 v -60.60682 z m -4.97847,0 h -52.96176 v 44.25566 l 52.96176,6.8 z" stroke-miterlimit="10" id="Winlogo" inkscape:connector-curvature="0" style="fill:#00adef;fill-opacity:1;stroke:none;stroke-width:0.608393;stroke-miterlimit:10"/>
      <path id="path893" style="font-style:normal;font-variant:normal;font-weight:normal;font-stretch:normal;font-size:72.2468px;line-height:1.25;font-family:'Segoe UI';-inkscape-font-specification:'Segoe UI';letter-spacing:0px;word-spacing:0px;fill:#00adef;fill-opacity:1;stroke:none;stroke-width:2.67399" d="m 464.60271,300.75232 h -8.56514 V 236.0438 c -0.66151,0.66154 -1.63639,1.42753 -2.92465,2.29797 -1.25345,0.83562 -2.68097,1.67124 -4.28257,2.50686 -1.56679,0.83563 -3.23804,1.61902 -5.01375,2.35019 -1.74087,0.73117 -3.44692,1.30566 -5.11817,1.72347 v -8.66957 c 1.88015,-0.52227 3.86475,-1.21862 5.9538,-2.08906 2.12387,-0.90526 4.19552,-1.89756 6.21495,-2.97691 2.05423,-1.11415 3.98661,-2.26313 5.79714,-3.44694 1.81051,-1.21861 3.3773,-2.40241 4.70035,-3.55138 h 3.23804 z m -34.35391,1.14899 c -1.60161,0 -2.97691,-0.5745 -4.12589,-1.72349 -1.11417,-1.14897 -1.67126,-2.52427 -1.67126,-4.12588 0,-1.60161 0.55709,-2.97691 1.67126,-4.12589 1.14898,-1.1838 2.52428,-1.7757 4.12589,-1.7757 1.63642,0 3.02912,0.5919 4.17811,1.7757 1.14897,1.14898 1.72346,2.52428 1.72346,4.12589 0,1.60161 -0.57449,2.97691 -1.72346,4.12588 -1.14899,1.14899 -2.54169,1.72349 -4.17811,1.72349 z m -61.35405,-22.03956 c 0,-1.9846 0.31336,-3.9692 0.94008,-5.9538 0.62671,-2.01943 1.51456,-3.89958 2.66355,-5.64047 1.1838,-1.74086 2.62873,-3.32505 4.33479,-4.75258 1.74089,-1.42753 3.70808,-2.5591 5.90158,-3.39472 -3.23804,-1.81052 -5.81454,-4.12589 -7.72951,-6.94612 -1.91497,-2.85504 -2.87245,-6.00603 -2.87245,-9.45297 0,-2.75059 0.52226,-5.29228 1.56679,-7.62505 1.07935,-2.33278 2.5591,-4.3522 4.43925,-6.05827 1.88014,-1.70606 4.10846,-3.02913 6.68497,-3.9692 2.5765,-0.97489 5.36191,-1.46234 8.35622,-1.46234 3.02913,0 5.83195,0.48745 8.40846,1.46234 2.57651,0.97489 4.80483,2.31536 6.68498,4.02143 1.88015,1.70606 3.34249,3.72548 4.38701,6.05827 1.04454,2.33277 1.56681,4.85705 1.56681,7.57282 0,3.44694 -0.95749,6.59793 -2.87247,9.45297 -1.91497,2.82023 -4.45665,5.1356 -7.62505,6.94612 2.15869,0.83562 4.09107,1.96719 5.79714,3.39472 1.70605,1.42753 3.13357,3.01172 4.28255,4.75258 1.1838,1.74089 2.08906,3.62104 2.71577,5.64047 0.62671,1.9846 0.94007,3.9692 0.94007,5.9538 0,3.27286 -0.59189,6.26718 -1.77568,8.98295 -1.1838,2.71577 -2.85505,5.04855 -5.01374,6.99833 -2.12387,1.91497 -4.68297,3.41213 -7.67728,4.49147 -2.95949,1.07935 -6.23235,1.61903 -9.81857,1.61903 -3.55139,0 -6.80684,-0.53968 -9.76633,-1.61903 -2.95949,-1.07934 -5.51858,-2.5765 -7.67728,-4.49147 -2.15869,-1.94978 -3.84734,-4.28256 -5.06596,-6.99833 -1.1838,-2.71577 -1.7757,-5.71009 -1.7757,-8.98295 z m 9.2963,-0.73116 c 0,2.33277 0.34818,4.43924 1.04453,6.31939 0.73117,1.88015 1.74088,3.48176 3.02913,4.80483 1.32307,1.32307 2.90727,2.35018 4.7526,3.08135 1.88015,0.69636 3.9518,1.04454 6.21495,1.04454 2.19351,0 4.21293,-0.36559 6.05825,-1.09676 1.84533,-0.73117 3.42954,-1.75829 4.75261,-3.08135 1.35789,-1.32307 2.40241,-2.92468 3.13358,-4.80483 0.76599,-1.88016 1.14898,-3.96922 1.14898,-6.26717 0,-2.08906 -0.36559,-4.03885 -1.09676,-5.84936 -0.69635,-1.84533 -1.70605,-3.46435 -3.02912,-4.85705 -1.32307,-1.3927 -2.90728,-2.48946 -4.75261,-3.29027 -1.84532,-0.80081 -3.91696,-1.20121 -6.21493,-1.20121 -2.1587,0 -4.16071,0.383 -6.00604,1.14899 -1.81052,0.73117 -3.39472,1.77569 -4.7526,3.13357 -1.32307,1.32307 -2.3676,2.92468 -3.13359,4.80483 -0.76599,1.84533 -1.14898,3.88217 -1.14898,6.1105 z m 2.66356,-34.73055 c 0,1.77569 0.31335,3.42952 0.94006,4.96149 0.66154,1.49717 1.54939,2.82024 2.66355,3.96921 1.14899,1.11417 2.47206,2.00202 3.9692,2.66355 1.49716,0.62672 3.09877,0.94008 4.80484,0.94008 1.70606,0 3.30767,-0.33077 4.80482,-0.99231 1.53197,-0.66153 2.85504,-1.54937 3.96921,-2.66354 1.11416,-1.14899 2.00201,-2.47206 2.66355,-3.96921 0.66153,-1.53197 0.9923,-3.1684 0.9923,-4.90927 0,-1.81051 -0.33077,-3.48176 -0.9923,-5.01374 -0.62672,-1.53198 -1.49716,-2.85505 -2.61133,-3.96921 -1.11417,-1.11416 -2.43723,-1.9846 -3.9692,-2.61132 -1.49715,-0.66154 -3.11617,-0.99231 -4.85705,-0.99231 -1.84534,0 -3.534,0.33077 -5.06597,0.99231 -1.49716,0.66154 -2.80282,1.5668 -3.91697,2.71577 -1.07935,1.11417 -1.91497,2.43724 -2.50687,3.96921 -0.59189,1.53198 -0.88784,3.16841 -0.88784,4.90929 z m -71.96053,54.41989 v -9.19184 c 4.33995,3.44694 9.11714,5.17041 14.33156,5.17041 6.99572,0 10.49358,-2.50687 10.49358,-7.5206 0,-1.42752 -0.30768,-2.62873 -0.92303,-3.60362 -0.58298,-1.0097 -1.39268,-1.89755 -2.42909,-2.66355 -1.00401,-0.76599 -2.20236,-1.44493 -3.59504,-2.03683 -1.36027,-0.62671 -2.83391,-1.27084 -4.4209,-1.93237 -2.20236,-0.94007 -4.14562,-1.88015 -5.82979,-2.82023 -1.65177,-0.97489 -3.04444,-2.05423 -4.17801,-3.23804 -1.10118,-1.21861 -1.94325,-2.59391 -2.52622,-4.12589 -0.55059,-1.53196 -0.82589,-3.32506 -0.82589,-5.37931 0,-2.50686 0.5344,-4.71777 1.60319,-6.63274 1.06879,-1.94979 2.49384,-3.56881 4.27516,-4.85706 1.78132,-1.32308 3.80555,-2.31538 6.0727,-2.97691 2.29953,-0.66153 4.66382,-0.9923 7.09289,-0.9923 4.30757,0 8.1617,0.80081 11.56241,2.40242 v 8.66958 c -3.65981,-2.57651 -7.8702,-3.86476 -12.63119,-3.86476 -1.48984,0 -2.83393,0.1915 -4.03228,0.57449 -1.19835,0.34818 -2.23475,0.85304 -3.10922,1.51458 -0.84206,0.66153 -1.506,1.46233 -1.99183,2.40241 -0.45343,0.90526 -0.68015,1.91497 -0.68015,3.02912 0,1.39271 0.22672,2.5591 0.68015,3.49917 0.48583,0.94009 1.18216,1.77571 2.08901,2.50686 0.90685,0.73117 2.00803,1.39271 3.30355,1.98461 1.2955,0.5919 2.76914,1.23603 4.42092,1.93238 2.20235,0.90526 4.17799,1.84533 5.92691,2.82022 1.74895,0.94007 3.23879,2.01942 4.46952,3.23805 1.23073,1.18379 2.16997,2.55908 2.81774,4.12588 0.68013,1.56679 1.0202,3.42953 1.0202,5.58822 0,2.64614 -0.55059,4.9441 -1.65177,6.89388 -1.06879,1.94979 -2.51004,3.56881 -4.32374,4.85706 -1.81372,1.28825 -3.90273,2.24574 -6.26702,2.87245 -2.36432,0.62672 -4.84198,0.94008 -7.43299,0.94008 -5.11725,0 -9.55436,-1.06194 -13.31133,-3.18582 z m -3.32623,-51.54745 -16.03351,53.47984 h -8.8785 l -11.01976,-38.28196 c -0.41781,-1.46234 -0.69636,-3.11618 -0.83563,-4.96151 h -0.2089 c -0.10446,1.25343 -0.47005,2.87245 -1.09676,4.85706 l -11.95986,38.38641 h -8.5651 l -16.1902,-53.47984 h 8.98293 l 11.07202,40.21433 c 0.34817,1.21861 0.59189,2.82022 0.73116,4.80483 h 0.41779 c 0.10445,-1.53197 0.41782,-3.1684 0.94011,-4.90928 l 12.32543,-40.10988 h 7.83394 l 11.072,40.31879 c 0.34817,1.28825 0.60931,2.88985 0.78341,4.80482 h 0.4178 c 0.0697,-1.35788 0.36566,-2.95949 0.88785,-4.80482 l 10.86308,-40.31879 z m -103.97853,54.73327 c -7.9036,0 -14.223,-2.48946 -18.9582,-7.46838 -4.70037,-5.01373 -7.05055,-11.64649 -7.05055,-19.89826 0,-8.98294 2.45464,-15.99868 7.36391,-21.04722 4.9093,-5.04856 11.54206,-7.57284 19.89828,-7.57284 7.97321,0 14.18815,2.45464 18.64481,7.36392 4.49147,4.90928 6.7372,11.71613 6.7372,20.42054 0,8.53029 -2.41982,15.37195 -7.25947,20.52496 -4.80481,5.11819 -11.26347,7.67728 -19.37598,7.67728 z m 0.62672,-48.77946 c -5.50119,0 -9.85339,1.88015 -13.0566,5.64045 -3.20322,3.72549 -4.80483,8.87849 -4.80483,15.45901 0,6.33681 1.61901,11.33313 4.85704,14.98898 3.23805,3.65585 7.57284,5.48377 13.00439,5.48377 5.53599,0 9.78373,-1.79311 12.74323,-5.37933 2.99432,-3.5862 4.49148,-8.68697 4.49148,-15.30232 0,-6.68498 -1.49716,-11.83799 -4.49148,-15.45902 -2.9595,-3.62103 -7.20724,-5.43154 -12.74323,-5.43154 z m -36.71092,47.52603 h -8.56513 v -9.08739 h -0.20892 c -3.96921,6.89388 -10.0971,10.34082 -18.38367,10.34082 -6.71981,0 -12.09913,-2.38501 -16.13796,-7.15503 -4.00403,-4.80482 -6.00605,-11.33311 -6.00605,-19.58488 0,-8.84367 2.22833,-15.92906 6.685,-21.25615 4.45664,-5.32709 10.39304,-7.99064 17.8092,-7.99064 7.34651,0 12.69101,2.88986 16.03348,8.66958 h 0.20892 V 221.5771 h 8.56513 z m -8.56513,-24.18082 v -7.88619 c 0,-4.31739 -1.42752,-7.97323 -4.28256,-10.96754 -2.85505,-2.99432 -6.47608,-4.49148 -10.8631,-4.49148 -5.22263,0 -9.3311,1.91497 -12.32541,5.74491 -2.99433,3.82993 -4.49149,9.1222 -4.49149,15.87681 0,6.16272 1.42752,11.03719 4.28257,14.6234 2.88985,3.55139 6.75461,5.32709 11.59427,5.32709 4.77001,0 8.63476,-1.72347 11.59425,-5.17041 2.99431,-3.44695 4.49147,-7.79915 4.49147,-13.05659 z m -49.91217,24.18082 H 98.462672 V 270.2521 c 0,-11.35054 -4.143287,-17.02581 -12.429862,-17.02581 -4.282576,0 -7.833971,1.61902 -10.654186,4.85706 -2.785407,3.20321 -4.17811,7.25946 -4.17811,12.16875 v 30.50022 h -8.565137 v -53.47984 h 8.565137 v 8.87848 h 0.208889 c 4.038847,-6.75461 9.888203,-10.13191 17.548069,-10.13191 5.84936,0 10.323426,1.89756 13.422198,5.69267 3.09877,3.76031 4.64815,9.20926 4.64815,16.34686 z M 44.378523,233.69363 c -1.531976,0 -2.837641,-0.52226 -3.916994,-1.56679 -1.079345,-1.04455 -1.619017,-2.36762 -1.619017,-3.96921 0,-1.60162 0.539672,-2.92469 1.619017,-3.9692 1.079353,-1.07936 2.385018,-1.61904 3.916994,-1.61904 1.566785,0 2.88985,0.53968 3.969193,1.61904 1.114171,1.04451 1.671256,2.36758 1.671256,3.9692 0,1.53197 -0.557085,2.83762 -1.671256,3.91697 -1.079343,1.07935 -2.402408,1.61903 -3.969193,1.61903 z m 4.17811,67.05869 h -8.565138 v -53.47984 h 8.565138 z M 32.818486,225.85966 11.666791,300.75232 H 1.378192 l -15.406783,-54.73327 c -0.661536,-2.33278 -1.061941,-4.87447 -1.201215,-7.62506 h -0.208908 c -0.208905,2.5765 -0.661531,5.08337 -1.357878,7.52061 l -15.511244,54.83772 h -10.184152 l -21.935075,-74.89266 h 9.661883 l 15.92905,57.44904 c 0.661537,2.40241 1.079347,4.90927 1.253431,7.52059 h 0.261126 c 0.174094,-1.84533 0.713767,-4.35219 1.619018,-7.52059 l 16.555766,-57.44904 h 8.408453 L 5.1384982,283.7265 c 0.5570729,1.98461 0.974883,4.31739 1.2534303,6.99834 h 0.2088948 c 0.1392737,-1.81052 0.6093148,-4.21293 1.4101234,-7.20723 L 23.313283,225.85966 Z" sodipodi:nodetypes="cccccccccccccccccccccccccccccccccccccccccccccccccccccccccccccccccccccccccccccccccccccccccccccccccccccccccccccccccccccccccccccccccccccccccccccccccccccccccccccccccccccccccccccccccccccccccccccccccccccccccccccccccccccccccccccccccccccccccccccccc"/>
    </g>
  </g>
</svg>