<?xml version="1.0" standalone="no"?>
<!DOCTYPE svg PUBLIC "-//W3C//DTD SVG 20010904//EN"
 "http://www.w3.org/TR/2001/REC-SVG-20010904/DTD/svg10.dtd">
<svg version="1.0" xmlns="http://www.w3.org/2000/svg"
 width="512.000000pt" height="512.000000pt" viewBox="0 0 512.000000 512.000000"
 preserveAspectRatio="xMidYMid meet">
<metadata>
Created by potrace 1.14, written by Peter Selinger 2001-2017
</metadata>
<g transform="translate(0.000000,512.000000) scale(0.100000,-0.100000)"
fill="#000000" stroke="none">
<path d="M2320 4085 c-278 -73 -495 -252 -620 -509 -58 -121 -78 -192 -90
-332 -9 -98 0 -239 16 -265 4 -7 143 -9 395 -7 l388 3 -24 25 c-110 115 -75
309 69 376 164 77 353 -55 333 -232 -5 -50 -45 -132 -69 -145 -10 -5 -18 -13
-18 -17 0 -4 177 -7 392 -6 l393 2 8 39 c5 21 7 101 4 178 -5 150 -25 242 -82
370 -85 191 -264 369 -465 463 -126 58 -200 74 -375 78 -146 4 -168 2 -255
-21z m740 -196 c96 -65 270 -262 270 -305 0 -12 -48 -39 -326 -185 l-121 -63
-69 71 c-38 39 -75 73 -83 75 -11 3 2 34 49 124 34 65 89 170 122 231 67 128
54 124 158 52z m337 -453 c7 -22 10 -43 6 -47 -5 -4 -117 -35 -251 -70 -179
-46 -246 -59 -254 -51 -17 17 4 36 60 57 64 24 264 101 337 131 33 13 66 23
74 21 8 -1 20 -20 28 -41z"/>
<path d="M1526 2862 c-5 -8 -42 -162 -83 -337 -8 -38 -26 -112 -39 -164 -34
-134 -32 -161 17 -186 24 -13 183 -15 1137 -15 1091 0 1110 0 1135 20 39 31
40 59 7 198 -51 212 -68 284 -85 362 -9 41 -22 87 -27 103 l-10 27 -1024 0
c-562 0 -1025 -4 -1028 -8z"/>
<path d="M1398 2807 c-14 -28 -42 -90 -61 -137 -19 -47 -60 -143 -91 -213 -31
-71 -56 -136 -56 -146 0 -25 42 -61 71 -61 27 0 30 8 64 150 9 36 27 112 41
170 48 199 64 275 62 282 -2 4 -15 -16 -30 -45z"/>
<path d="M3690 2813 c0 -25 33 -179 55 -253 9 -30 22 -84 30 -120 8 -36 20
-92 27 -125 12 -55 15 -60 41 -63 31 -4 62 18 72 49 4 11 -17 71 -50 146 -31
70 -63 147 -71 169 -25 68 -104 219 -104 197z"/>
<path d="M1522 1754 l3 -296 33 -29 32 -29 961 0 c953 0 961 0 990 21 16 11
33 36 40 57 12 43 9 539 -4 560 -6 9 -224 12 -1033 12 l-1025 0 3 -296z"/>
</g>
</svg>
